<svg id="图层_1" data-name="图层 1" xmlns="http://www.w3.org/2000/svg" xmlns:xlink="http://www.w3.org/1999/xlink" viewBox="0 0 1024 1024"><defs><style>.cls-1{fill:#5aaacc;}.cls-2{fill:url(#新建渐变色板_4);}.cls-3{fill:url(#未命名的渐变_14);}.cls-4{fill:url(#新建渐变色板__副本);}.cls-5{fill:#875c23;}</style><linearGradient id="新建渐变色板_4" x1="325.8" y1="401.49" x2="693.6" y2="613.84" gradientUnits="userSpaceOnUse"><stop offset="0" stop-color="#0095d1"/><stop offset="1" stop-color="#00498a"/></linearGradient><linearGradient id="未命名的渐变_14" x1="445.55" y1="394.79" x2="500.49" y2="363.08" gradientUnits="userSpaceOnUse"><stop offset="0" stop-color="#e72d28"/><stop offset="1" stop-color="#a01c2a"/></linearGradient><linearGradient id="新建渐变色板__副本" x1="325.8" y1="401.49" x2="693.6" y2="613.84" gradientUnits="userSpaceOnUse"><stop offset="0" stop-color="#fedf8f"/><stop offset="1" stop-color="#875c23"/></linearGradient></defs><title>1</title><rect class="cls-1" width="1024" height="1024" rx="79" ry="79"/><g id="_编组_" data-name="&lt;编组&gt;"><g id="_编组_2" data-name="&lt;编组&gt;"><path id="_复合路径_" data-name="&lt;复合路径&gt;" class="cls-2" d="M811.72,295c-37.64-53.46-144.31-47.08-264.94,7.64V609.49q-23.84,16-47.29,30.14V443.32h-53V669.65c-113,59.71-206.68,80.51-231.4,45.4-29.8-42.33,50.66-151.57,184.12-256v-68.5C244.1,506,158.81,650.91,207.67,720.31c34.9,49.57,129.16,47.7,238.86,3.54v33.38h53V699.79q23.46-11.84,47.29-26v83.43h53V639.54l1.88-1.31C768.43,520.79,862.49,367.13,811.72,295Zm-212,276.92V332c100.77-49,181.78-64,204.51-31.75C835.55,344.71,745.29,462.93,599.75,571.94Z"/><circle id="_路径_" data-name="&lt;路径&gt;" class="cls-3" cx="473.02" cy="378.94" r="31.71"/><path id="_复合路径_2" data-name="&lt;复合路径&gt;" class="cls-4" d="M811.72,295c-37.64-53.46-144.31-47.08-264.94,7.64V609.49q-23.84,16-47.29,30.14V443.32h-53V669.65c-113,59.71-206.68,80.51-231.4,45.4-29.8-42.33,50.66-151.57,184.12-256v-68.5C244.1,506,158.81,650.91,207.67,720.31c34.9,49.57,129.16,47.7,238.86,3.54v33.38h53V699.79q23.46-11.84,47.29-26v83.43h53V639.54l1.88-1.31C768.43,520.79,862.49,367.13,811.72,295Zm-212,276.92V332c100.77-49,181.78-64,204.51-31.75C835.55,344.71,745.29,462.93,599.75,571.94Z"/><circle id="_路径_2" data-name="&lt;路径&gt;" class="cls-4" cx="473.02" cy="378.94" r="31.71"/></g><g id="_编组_3" data-name="&lt;编组&gt;"><g id="_编组_4" data-name="&lt;编组&gt;"><path id="_路径_3" data-name="&lt;路径&gt;" class="cls-5" d="M402.37,484.74V461.9c-116.11,90.9-192.09,185.4-190.26,236.3C230.89,644.84,302,564.38,402.37,484.74Z"/><path id="_路径_4" data-name="&lt;路径&gt;" class="cls-5" d="M775,286.86a108.25,108.25,0,0,0-16.11-.72c-38.12.91-93.21,18.22-156,48.78v17.89c69.56-36.78,131.45-59.58,175.18-64.62C777,287.73,776,287.29,775,286.86Z"/><path id="_路径_5" data-name="&lt;路径&gt;" class="cls-5" d="M829.57,357.77c-.72,1.54-1.47,3.09-2.27,4.66a158.93,158.93,0,0,1-3.93,19.17c-20.72,77.32-101.84,177.3-218.63,259.53l-1.88,1.31v21.81q7.42-5,14.82-10.18C753.17,558.67,837.5,436.73,829.57,357.77Z"/><path id="_路径_6" data-name="&lt;路径&gt;" class="cls-5" d="M280.29,758.81c40,13,96.95,7.9,160.74-13.29V730.12C379.5,753.82,323.29,763.93,280.29,758.81Z"/><path id="_路径_7" data-name="&lt;路径&gt;" class="cls-5" d="M502.62,721q19.23-8.91,38.8-19.52V681.65q-19.5,11.27-38.8,21Z"/></g><path id="_路径_8" data-name="&lt;路径&gt;" class="cls-5" d="M499.16,404.9c-9.89,9.89-23.79,13-35.38,9.14a31.71,31.71,0,0,0,44.46-44.71C512.22,381,509.1,395,499.16,404.9Z"/></g></g></svg>